<svg width="77" height="45" viewBox="0 0 77 45" fill="none" xmlns="http://www.w3.org/2000/svg">
<path fill-rule="evenodd" clip-rule="evenodd" d="M70.8007 40.5H22.9606L6.54384 22.5L22.9606 4.5H70.8007V40.5ZM73.7507 0H21.4207C20.456 0 19.5504 0.36 18.9987 0.96525L0.528787 21.2153C-0.176262 21.987 -0.176262 23.013 0.528787 23.7847L18.9987 44.0347C19.5504 44.64 20.456 45 21.4207 45H73.7507C75.3791 45 76.7007 43.992 76.7007 42.75V2.25C76.7007 1.008 75.3791 0 73.7507 0ZM31.8401 31.4033C32.4153 31.842 33.1705 32.0625 33.9257 32.0625C34.6809 32.0625 35.4361 31.842 36.0114 31.4033L43.5132 25.6815L51.0151 31.4033C51.5903 31.842 52.3455 32.0625 53.1007 32.0625C53.8559 32.0625 54.6111 31.842 55.1864 31.4033C56.3398 30.5235 56.3398 29.1015 55.1864 28.2217L47.6845 22.5L55.1864 16.7783C56.3398 15.8985 56.3398 14.4765 55.1864 13.5967C54.0329 12.717 52.1685 12.717 51.0151 13.5967L43.5132 19.3185L36.0114 13.5967C34.8579 12.717 32.9935 12.717 31.8401 13.5967C30.6866 14.4765 30.6866 15.8985 31.8401 16.7783L39.3419 22.5L31.8401 28.2217C30.6866 29.1015 30.6866 30.5235 31.8401 31.4033Z" fill="#000000"/>
</svg>
